<?xml version="1.0" encoding="UTF-8" standalone="no"?>
<!DOCTYPE svg PUBLIC "-//W3C//DTD SVG 1.1//EN"
 "http://www.w3.org/Graphics/SVG/1.1/DTD/svg11.dtd">
<!-- Generated by graphviz version 2.49.3 (20211027.1534)
 -->
<!-- Title: Ogre::SmallVector&lt; T, N &gt; Pages: 1 -->
<svg width="288pt" height="363pt"
 viewBox="0.00 0.00 288.00 363.00" xmlns="http://www.w3.org/2000/svg" xmlns:xlink="http://www.w3.org/1999/xlink">
<g id="graph0" class="graph" transform="scale(1 1) rotate(0) translate(4 359)">
<title>Ogre::SmallVector&lt; T, N &gt;</title>
<!-- Node1 -->
<g id="node1" class="node">
<title>Node1</title>
<g id="a_node1"><a xlink:title="SmallVector &#45; This is a &#39;vector&#39; (really, a variable&#45;sized array), optimized for the case when the ar...">
<polygon fill="#bfbfbf" stroke="black" points="90.5,-67.5 90.5,-97.5 191.5,-97.5 191.5,-67.5 90.5,-67.5"/>
<text text-anchor="start" x="98.5" y="-85.5" font-family="Helvetica,sans-Serif" font-size="10.00">Ogre::SmallVector&lt;</text>
<text text-anchor="middle" x="141" y="-74.5" font-family="Helvetica,sans-Serif" font-size="10.00"> T, N &gt;</text>
</a>
</g>
</g>
<!-- Node6 -->
<g id="node6" class="node">
<title>Node6</title>
<g id="a_node6"><a xlink:href="struct_ogre_1_1_vector_set.html" target="_top" xlink:title=" ">
<polygon fill="none" stroke="black" points="0,-6 0,-25 134,-25 134,-6 0,-6"/>
<text text-anchor="middle" x="67" y="-13" font-family="Helvetica,sans-Serif" font-size="10.00">Ogre::VectorSet&lt; Edge, 8 &gt;</text>
</a>
</g>
</g>
<!-- Node1&#45;&gt;Node6 -->
<g id="edge9" class="edge">
<title>Node1&#45;&gt;Node6</title>
<path fill="none" stroke="midnightblue" d="M117.29,-60.67C103.63,-48.67 87.17,-34.22 76.9,-25.19"/>
<polygon fill="midnightblue" stroke="midnightblue" points="115.12,-63.43 124.94,-67.4 119.74,-58.17 115.12,-63.43"/>
</g>
<!-- Node7 -->
<g id="node7" class="node">
<title>Node7</title>
<g id="a_node7"><a xlink:href="struct_ogre_1_1_vector_set.html" target="_top" xlink:title=" ">
<polygon fill="none" stroke="black" points="152,-0.5 152,-30.5 280,-30.5 280,-0.5 152,-0.5"/>
<text text-anchor="start" x="160" y="-18.5" font-family="Helvetica,sans-Serif" font-size="10.00">Ogre::VectorSet&lt; Triangle</text>
<text text-anchor="middle" x="216" y="-7.5" font-family="Helvetica,sans-Serif" font-size="10.00"> *, 7 &gt;</text>
</a>
</g>
</g>
<!-- Node1&#45;&gt;Node7 -->
<g id="edge10" class="edge">
<title>Node1&#45;&gt;Node7</title>
<path fill="none" stroke="midnightblue" d="M165.12,-60.6C176.44,-50.78 189.64,-39.34 199.76,-30.58"/>
<polygon fill="midnightblue" stroke="midnightblue" points="162.54,-58.2 157.27,-67.4 167.12,-63.49 162.54,-58.2"/>
</g>
<!-- Node2 -->
<g id="node2" class="node">
<title>Node2</title>
<g id="a_node2"><a xlink:href="class_ogre_1_1_small_vector_impl.html" target="_top" xlink:title="SmallVectorImpl &#45; This class consists of common code factored out of the SmallVector class to reduce ...">
<polygon fill="none" stroke="black" points="72.5,-134.5 72.5,-153.5 209.5,-153.5 209.5,-134.5 72.5,-134.5"/>
<text text-anchor="middle" x="141" y="-141.5" font-family="Helvetica,sans-Serif" font-size="10.00">Ogre::SmallVectorImpl&lt; T &gt;</text>
</a>
</g>
</g>
<!-- Node2&#45;&gt;Node1 -->
<g id="edge1" class="edge">
<title>Node2&#45;&gt;Node1</title>
<path fill="none" stroke="midnightblue" d="M134.7,-124.53C133.97,-115.81 134.13,-105.59 135.17,-97.52"/>
<polygon fill="midnightblue" stroke="midnightblue" points="131.24,-125.06 136.1,-134.48 138.17,-124.09 131.24,-125.06"/>
</g>
<!-- Node2&#45;&gt;Node1 -->
<g id="edge8" class="edge">
<title>Node2&#45;&gt;Node1</title>
<path fill="none" stroke="midnightblue" d="M147.3,-124.53C148.03,-115.81 147.87,-105.59 146.83,-97.52"/>
<polygon fill="midnightblue" stroke="midnightblue" points="143.83,-124.09 145.9,-134.48 150.76,-125.06 143.83,-124.09"/>
</g>
<!-- Node3 -->
<g id="node3" class="node">
<title>Node3</title>
<g id="a_node3"><a xlink:href="class_ogre_1_1_small_vector_template_base.html" target="_top" xlink:title=" ">
<polygon fill="none" stroke="black" points="73,-190.5 73,-231.5 209,-231.5 209,-190.5 73,-190.5"/>
<text text-anchor="start" x="81" y="-219.5" font-family="Helvetica,sans-Serif" font-size="10.00">Ogre::SmallVectorTemplate</text>
<text text-anchor="start" x="81" y="-208.5" font-family="Helvetica,sans-Serif" font-size="10.00">Base&lt; T, isPodLike&lt; T &gt;</text>
<text text-anchor="middle" x="141" y="-197.5" font-family="Helvetica,sans-Serif" font-size="10.00">::value &gt;</text>
</a>
</g>
</g>
<!-- Node3&#45;&gt;Node2 -->
<g id="edge2" class="edge">
<title>Node3&#45;&gt;Node2</title>
<path fill="none" stroke="midnightblue" d="M134.27,-180.26C134.12,-170.56 134.77,-160.52 136.24,-153.65"/>
<polygon fill="midnightblue" stroke="midnightblue" points="130.79,-180.67 134.75,-190.5 137.78,-180.34 130.79,-180.67"/>
</g>
<!-- Node3&#45;&gt;Node2 -->
<g id="edge7" class="edge">
<title>Node3&#45;&gt;Node2</title>
<path fill="none" stroke="midnightblue" d="M147.73,-180.26C147.88,-170.56 147.23,-160.52 145.76,-153.65"/>
<polygon fill="midnightblue" stroke="midnightblue" points="144.22,-180.34 147.25,-190.5 151.21,-180.67 144.22,-180.34"/>
</g>
<!-- Node4 -->
<g id="node4" class="node">
<title>Node4</title>
<g id="a_node4"><a xlink:href="class_ogre_1_1_small_vector_template_common.html" target="_top" xlink:title=" ">
<polygon fill="none" stroke="black" points="73,-268.5 73,-298.5 209,-298.5 209,-268.5 73,-268.5"/>
<text text-anchor="start" x="81" y="-286.5" font-family="Helvetica,sans-Serif" font-size="10.00">Ogre::SmallVectorTemplate</text>
<text text-anchor="middle" x="141" y="-275.5" font-family="Helvetica,sans-Serif" font-size="10.00">Common&lt; T &gt;</text>
</a>
</g>
</g>
<!-- Node4&#45;&gt;Node3 -->
<g id="edge3" class="edge">
<title>Node4&#45;&gt;Node3</title>
<path fill="none" stroke="midnightblue" d="M134.55,-258.27C134.06,-249.56 134.17,-239.85 134.88,-231.59"/>
<polygon fill="midnightblue" stroke="midnightblue" points="131.07,-258.59 135.45,-268.23 138.04,-257.96 131.07,-258.59"/>
</g>
<!-- Node4&#45;&gt;Node3 -->
<g id="edge6" class="edge">
<title>Node4&#45;&gt;Node3</title>
<path fill="none" stroke="midnightblue" d="M147.45,-258.27C147.94,-249.56 147.83,-239.85 147.12,-231.59"/>
<polygon fill="midnightblue" stroke="midnightblue" points="143.96,-257.96 146.55,-268.23 150.93,-258.59 143.96,-257.96"/>
</g>
<!-- Node5 -->
<g id="node5" class="node">
<title>Node5</title>
<g id="a_node5"><a xlink:href="class_ogre_1_1_small_vector_base.html" target="_top" xlink:title="SmallVectorBase &#45; This is all the non&#45;templated stuff common to all SmallVectors.">
<polygon fill="none" stroke="black" points="82,-335.5 82,-354.5 200,-354.5 200,-335.5 82,-335.5"/>
<text text-anchor="middle" x="141" y="-342.5" font-family="Helvetica,sans-Serif" font-size="10.00">Ogre::SmallVectorBase</text>
</a>
</g>
</g>
<!-- Node5&#45;&gt;Node4 -->
<g id="edge4" class="edge">
<title>Node5&#45;&gt;Node4</title>
<path fill="none" stroke="midnightblue" d="M134.7,-325.53C133.97,-316.81 134.13,-306.59 135.17,-298.52"/>
<polygon fill="midnightblue" stroke="midnightblue" points="131.24,-326.06 136.1,-335.48 138.17,-325.09 131.24,-326.06"/>
</g>
<!-- Node5&#45;&gt;Node4 -->
<g id="edge5" class="edge">
<title>Node5&#45;&gt;Node4</title>
<path fill="none" stroke="midnightblue" d="M147.3,-325.53C148.03,-316.81 147.87,-306.59 146.83,-298.52"/>
<polygon fill="midnightblue" stroke="midnightblue" points="143.83,-325.09 145.9,-335.48 150.76,-326.06 143.83,-325.09"/>
</g>
</g>
</svg>
